# xmcd
#
# Track frame offsets: 
#        150
#        17071
#        32286
#        51719
#        66022
#        80936
#        102638
#        140250
#        151034
#        160023
#        180296
#        194402
#        212228
#
# Disc length: 3117 seconds
#
# Revision: 0
# Processed by: cddbd v1.5.2PL0 Copyright (c) Steve Scherf et al.
# Submitted via: ExactAudioCopy v0.95b4
#
DISCID=ad0c2b0d
DTITLE=Ray Brown-Moonstone - Mad House
DYEAR=1900
DGENRE=
TTITLE0=Story of Ali
TTITLE1=Mr. Blue
TTITLE2=King Velvet (King of the Rodeo)
TTITLE3=Start of a New Day
TTITLE4=Oh, Sarah
TTITLE5=Flight of the Gulls
TTITLE6=Run Sylvie Run
TTITLE7=Call Me a Drifter
TTITLE8=Passing the Time
TTITLE9=Carry Me Back to L.A.
TTITLE10=Danville Queen
TTITLE11=Busted
TTITLE12=Flight of the Gulls (Reversed)
EXTD=
EXTT0=
EXTT1=
EXTT2=
EXTT3=
EXTT4=
EXTT5=
EXTT6=
EXTT7=
EXTT8=
EXTT9=
EXTT10=
EXTT11=
EXTT12=
PLAYORDER=
